<?xml version="1.0" encoding="UTF-8" standalone="no" ?>
<!DOCTYPE svg PUBLIC "-//W3C//DTD SVG 1.1//EN" "http://www.w3.org/Graphics/SVG/1.1/DTD/svg11.dtd">
<svg xmlns="http://www.w3.org/2000/svg" xmlns:xlink="http://www.w3.org/1999/xlink" version="1.1" width="200" height="200" viewBox="0 0 200 200" xml:space="preserve">
<desc>Created with Fabric.js 5.2.4</desc>
<defs>
</defs>
<rect x="0" y="0" width="100%" height="100%" fill="transparent"></rect>
<g transform="matrix(1 0 0 1 100 100)" id="10900064-6a6d-43cc-ae8f-a733058cb918"  >
<rect style="stroke: none; stroke-width: 1; stroke-dasharray: none; stroke-linecap: butt; stroke-dashoffset: 0; stroke-linejoin: miter; stroke-miterlimit: 4; fill: rgb(255,255,255); fill-rule: nonzero; opacity: 1; visibility: hidden;" vector-effect="non-scaling-stroke"  x="-100" y="-100" rx="0" ry="0" width="200" height="200" />
</g>
<g transform="matrix(Infinity NaN NaN Infinity 0 0)" id="f605a19d-49bb-4167-9892-cd252fb3a17b"  >
</g>
<g transform="matrix(0.25 0 0 0.25 99.54 100.49)" id="d9b9581b-9264-4d6e-80fb-ba563901d8cd"  >
<path style="stroke: rgb(0,0,0); stroke-width: 0; stroke-dasharray: none; stroke-linecap: butt; stroke-dashoffset: 0; stroke-linejoin: miter; stroke-miterlimit: 4; fill: rgb(127,127,127); fill-rule: nonzero; opacity: 1;" vector-effect="non-scaling-stroke"  transform=" translate(-57.6, -61.69)" d="M 93.13 79.5 C 105.17999999999999 79.5 114.94999999999999 89.27 114.94999999999999 101.32 C 114.94999999999999 113.36999999999999 105.17999999999999 123.13999999999999 93.13 123.13999999999999 C 81.08 123.13999999999999 71.31 113.36999999999999 71.31 101.32 C 71.31 89.27 81.08 79.5 93.13 79.5 L 93.13 79.5 z M 8.08 0.25 L 103.36 0.25 C 105.53 0.25 107.47 1.1400000000000001 108.89 2.55 C 110.31 3.9699999999999998 111.19 5.9399999999999995 111.19 8.08 L 111.19 78.09 C 108.73 76.18 105.95 74.65 102.94 73.61 L 102.94 9.98 C 102.94 9.55 102.78 9.190000000000001 102.48 8.93 C 102.22 8.67 101.82000000000001 8.469999999999999 101.43 8.469999999999999 L 9.94 8.469999999999999 C 9.51 8.469999999999999 9.149999999999999 8.629999999999999 8.889999999999999 8.93 C 8.63 9.19 8.43 9.58 8.43 9.98 L 8.43 80 L 8.459999999999999 80 L 40.43 49.39 C 41.71 48.21 43.72 48.34 44.87 49.62 C 44.9 49.65 44.9 49.69 44.94 49.69 L 71.82 81.49 C 67.08999999999999 86.66999999999999 64.19999999999999 93.57 64.19999999999999 101.13999999999999 C 64.19999999999999 104.42999999999999 64.74999999999999 107.58999999999999 65.74999999999999 110.53999999999999 L 8.08 110.53999999999999 C 5.91 110.53999999999999 3.9699999999999998 109.64999999999999 2.55 108.24 C 1.13 106.83 0.25 104.85 0.25 102.71 L 0.25 8.08 C 0.25 5.91 1.1400000000000001 3.9699999999999998 2.55 2.55 C 3.9599999999999995 1.13 5.94 0.25 8.08 0.25 L 8.08 0.25 z M 73.98 79.35 L 77.69 56.559999999999995 C 77.99 54.849999999999994 79.6 53.66 81.31 53.959999999999994 C 81.97 54.059999999999995 82.56 54.38999999999999 83.02 54.81999999999999 L 100.12 72.78999999999999 C 97.94 72.27 95.68 71.99999999999999 93.34 71.99999999999999 C 85.91 71.99 79.13 74.77 73.98 79.35 L 73.98 79.35 z M 81.98 18.19 C 85.11 18.19 87.97 19.470000000000002 90.01 21.51 C 92.08 23.580000000000002 93.33 26.410000000000004 93.33 29.54 C 93.33 32.67 92.05 35.53 90.01 37.57 C 87.94000000000001 39.64 85.11 40.89 81.98 40.89 C 78.85000000000001 40.89 75.99000000000001 39.61 73.95 37.57 C 71.88000000000001 35.5 70.63000000000001 32.67 70.63000000000001 29.54 C 70.63000000000001 26.41 71.91000000000001 23.549999999999997 73.95 21.509999999999998 C 76.02 19.44 78.86 18.19 81.98 18.19 L 81.98 18.19 z M 85.82 88.05 L 105.78 109.65 C 107.36 107.26 108.28 104.4 108.28 101.32000000000001 C 108.28 92.96000000000001 101.5 86.18 93.14 86.18 C 90.48 86.17 87.99 86.85 85.82 88.05 L 85.82 88.05 z M 100.44 114.58 L 80.47999999999999 92.97999999999999 C 78.89999999999999 95.36999999999999 77.97999999999999 98.22999999999999 77.97999999999999 101.30999999999999 C 77.97999999999999 109.66999999999999 84.75999999999999 116.44999999999999 93.11999999999999 116.44999999999999 C 95.78 116.46 98.27 115.78 100.44 114.58 L 100.44 114.58 z" stroke-linecap="round" />
</g>
</svg>